<svg data-v-fde0c5aa="" xmlns="http://www.w3.org/2000/svg" viewBox="0 0 300 300" class="iconLeft"><!----><defs data-v-fde0c5aa=""><!----></defs><rect data-v-fde0c5aa="" fill="transparent" x="0" y="0" width="300px" height="300px" class="logo-background-square"></rect><defs data-v-fde0c5aa=""><!----></defs><g data-v-fde0c5aa="" id="6eba453e-ecd8-4c8c-a59f-15d2a8826c50" fill="#000000" transform="matrix(2.459893003523484,0,0,2.459893003523484,102.61604294846991,133.17433148054948)"><path d="M5.67 10.50L0.35 10.50L0.35 8.68L1.16 8.68L1.16 2.52L0.35 2.52L0.35 0.71L5.57 0.71L5.57 0.71Q7.32 0.71 8.16 1.34L8.16 1.34L8.16 1.34Q9.00 1.96 9.00 3.11L9.00 3.11L9.00 3.11Q9.00 3.56 8.93 3.88L8.93 3.88L8.93 3.88Q8.86 4.21 8.71 4.47L8.71 4.47L8.71 4.47Q8.55 4.73 8.29 4.93L8.29 4.93L8.29 4.93Q8.02 5.12 7.63 5.28L7.63 5.28L7.63 5.28Q8.01 5.39 8.34 5.58L8.34 5.58L8.34 5.58Q8.68 5.77 8.93 6.06L8.93 6.06L8.93 6.06Q9.18 6.36 9.33 6.75L9.33 6.75L9.33 6.75Q9.48 7.15 9.48 7.66L9.48 7.66L9.48 7.66Q9.48 9.14 8.59 9.82L8.59 9.82L8.59 9.82Q7.70 10.50 5.67 10.50L5.67 10.50ZM4.06 8.68L5.18 8.68L5.18 8.68Q5.63 8.68 5.97 8.37L5.97 8.37L5.97 8.37Q6.31 8.05 6.31 7.48L6.31 7.48L6.31 7.48Q6.31 6.94 6.02 6.59L6.02 6.59L6.02 6.59Q5.73 6.24 5.14 6.24L5.14 6.24L4.06 6.24L4.06 8.68ZM4.94 2.56L4.06 2.56L4.06 4.66L4.91 4.66L4.91 4.66Q5.47 4.66 5.67 4.38L5.67 4.38L5.67 4.38Q5.87 4.09 5.87 3.58L5.87 3.58L5.87 3.58Q5.87 3.09 5.61 2.83L5.61 2.83L5.61 2.83Q5.35 2.56 4.94 2.56L4.94 2.56ZM9.83 5.35L9.83 3.50L13.22 3.50L13.22 6.87L13.22 6.87Q13.22 7.78 13.38 8.21L13.38 8.21L13.38 8.21Q13.54 8.64 13.97 8.64L13.97 8.64L13.97 8.64Q14.34 8.64 14.60 8.34L14.60 8.34L14.60 8.34Q14.85 8.05 14.85 7.57L14.85 7.57L14.85 5.35L13.93 5.35L13.93 3.50L17.56 3.50L17.56 8.64L18.24 8.64L18.24 10.50L15.60 10.50L15.22 9.62L15.22 9.62Q15.11 9.74 14.95 9.93L14.95 9.93L14.95 9.93Q14.78 10.12 14.55 10.29L14.55 10.29L14.55 10.29Q14.32 10.46 14 10.58L14 10.58L14 10.58Q13.68 10.70 13.23 10.70L13.23 10.70L13.23 10.70Q12.43 10.70 11.89 10.49L11.89 10.49L11.89 10.49Q11.35 10.28 11.03 9.86L11.03 9.86L11.03 9.86Q10.70 9.44 10.56 8.79L10.56 8.79L10.56 8.79Q10.42 8.15 10.42 7.28L10.42 7.28L10.42 5.35L9.83 5.35ZM22.89 7.46L23.80 5.28L23.16 5.28L23.16 3.50L26.71 3.50L26.71 5.24L26.04 5.24L23.38 11.70L23.38 11.70Q23.23 12.03 23.02 12.38L23.02 12.38L23.02 12.38Q22.82 12.73 22.48 13.02L22.48 13.02L22.48 13.02Q22.15 13.31 21.64 13.50L21.64 13.50L21.64 13.50Q21.13 13.68 20.37 13.68L20.37 13.68L20.37 13.68Q19.82 13.65 19.41 13.45L19.41 13.45L19.41 13.45Q19.00 13.26 18.68 12.98L18.68 12.98L19.73 11.33L19.73 11.33Q19.91 11.48 20.11 11.62L20.11 11.62L20.11 11.62Q20.31 11.76 20.54 11.80L20.54 11.80L20.54 11.80Q20.71 11.83 20.85 11.78L20.85 11.78L20.85 11.78Q20.99 11.73 21.10 11.62L21.10 11.62L21.10 11.62Q21.21 11.51 21.29 11.36L21.29 11.36L21.29 11.36Q21.38 11.21 21.43 11.06L21.43 11.06L21.63 10.47L18.90 5.29L18.33 5.29L18.33 3.50L22.64 3.50L22.64 5.28L21.98 5.28L22.89 7.46ZM26.71 7.63L26.71 7.63L26.71 7.63Q26.71 7.29 26.81 6.92L26.81 6.92L26.81 6.92Q26.91 6.54 27.14 6.17L27.14 6.17L27.14 6.17Q27.37 5.80 27.77 5.44L27.77 5.44L27.77 5.44Q28.17 5.08 28.77 4.77L28.77 4.77L28.77 4.77Q28.35 4.49 28.05 3.99L28.05 3.99L28.05 3.99Q27.75 3.49 27.75 2.93L27.75 2.93L27.75 2.93Q27.75 2.49 27.96 2.06L27.96 2.06L27.96 2.06Q28.18 1.64 28.58 1.30L28.58 1.30L28.58 1.30Q28.98 0.97 29.53 0.76L29.53 0.76L29.53 0.76Q30.07 0.55 30.74 0.55L30.74 0.55L30.74 0.55Q31.56 0.55 32.14 0.76L32.14 0.76L32.14 0.76Q32.72 0.98 33.08 1.33L33.08 1.33L33.08 1.33Q33.45 1.68 33.62 2.10L33.62 2.10L33.62 2.10Q33.80 2.52 33.80 2.93L33.80 2.93L33.80 2.93Q33.80 3.35 33.66 3.67L33.66 3.67L33.66 3.67Q33.52 3.99 33.28 4.24L33.28 4.24L33.28 4.24Q33.05 4.49 32.77 4.68L32.77 4.68L32.77 4.68Q32.48 4.86 32.20 4.97L32.20 4.97L33.50 6.27L33.50 6.27Q33.75 5.80 33.93 5.32L33.93 5.32L33.93 5.32Q34.10 4.84 34.23 4.41L34.23 4.41L37.23 4.41L37.23 6.17L35.85 6.17L35.85 6.17Q35.69 6.66 35.49 7.07L35.49 7.07L35.49 7.07Q35.29 7.48 35.06 7.83L35.06 7.83L35.92 8.68L36.74 8.68L36.74 10.50L34.65 10.50L33.74 9.60L33.74 9.60Q33.18 10.12 32.30 10.40L32.30 10.40L32.30 10.40Q31.42 10.68 30.42 10.68L30.42 10.68L30.42 10.68Q29.55 10.68 28.86 10.44L28.86 10.44L28.86 10.44Q28.17 10.21 27.69 9.80L27.69 9.80L27.69 9.80Q27.22 9.39 26.96 8.83L26.96 8.83L26.96 8.83Q26.71 8.27 26.71 7.63ZM29.33 7.55L29.33 7.55L29.33 7.55Q29.33 7.80 29.43 7.99L29.43 7.99L29.43 7.99Q29.53 8.19 29.69 8.33L29.69 8.33L29.69 8.33Q29.85 8.47 30.05 8.54L30.05 8.54L30.05 8.54Q30.25 8.61 30.46 8.61L30.46 8.61L30.46 8.61Q30.80 8.61 31.28 8.48L31.28 8.48L31.28 8.48Q31.75 8.34 32.12 8.02L32.12 8.02L30.34 6.27L30.28 6.27L30.28 6.27Q30.14 6.36 29.97 6.50L29.97 6.50L29.97 6.50Q29.81 6.64 29.67 6.80L29.67 6.80L29.67 6.80Q29.53 6.97 29.43 7.16L29.43 7.16L29.43 7.16Q29.33 7.35 29.33 7.55ZM31.54 2.97L31.54 2.97L31.54 2.97Q31.54 2.66 31.36 2.39L31.36 2.39L31.36 2.39Q31.18 2.11 30.73 2.11L30.73 2.11L30.73 2.11Q30.41 2.11 30.22 2.36L30.22 2.36L30.22 2.36Q30.03 2.60 30.03 2.88L30.03 2.88L30.03 2.88Q30.03 3.11 30.12 3.28L30.12 3.28L30.12 3.28Q30.21 3.44 30.34 3.56L30.34 3.56L30.34 3.56Q30.46 3.68 30.61 3.77L30.61 3.77L30.61 3.77Q30.76 3.85 30.87 3.89L30.87 3.89L30.87 3.89Q30.90 3.91 31.01 3.84L31.01 3.84L31.01 3.84Q31.12 3.77 31.24 3.64L31.24 3.64L31.24 3.64Q31.36 3.51 31.45 3.34L31.45 3.34L31.45 3.34Q31.54 3.16 31.54 2.97ZM40.17 10.50L37.72 10.50L37.72 6.97L40.32 6.97L40.32 6.97Q40.32 7.42 40.52 7.69L40.52 7.69L40.52 7.69Q40.71 7.95 40.98 8.10L40.98 8.10L40.98 8.10Q41.26 8.25 41.56 8.30L41.56 8.30L41.56 8.30Q41.86 8.36 42.08 8.37L42.08 8.37L42.08 8.37Q42.27 8.37 42.48 8.34L42.48 8.34L42.48 8.34Q42.69 8.32 42.86 8.24L42.86 8.24L42.86 8.24Q43.04 8.16 43.16 8.03L43.16 8.03L43.16 8.03Q43.27 7.90 43.27 7.67L43.27 7.67L43.27 7.67Q43.27 7.41 42.88 7.23L42.88 7.23L42.88 7.23Q42.48 7.06 41.88 6.89L41.88 6.89L41.88 6.89Q41.29 6.72 40.59 6.50L40.59 6.50L40.59 6.50Q39.89 6.29 39.29 5.91L39.29 5.91L39.29 5.91Q38.70 5.53 38.30 4.95L38.30 4.95L38.30 4.95Q37.90 4.37 37.90 3.47L37.90 3.47L37.90 3.47Q37.90 2.70 38.23 2.13L38.23 2.13L38.23 2.13Q38.56 1.55 39.05 1.19L39.05 1.19L39.05 1.19Q39.55 0.83 40.13 0.64L40.13 0.64L40.13 0.64Q40.71 0.46 41.23 0.46L41.23 0.46L41.23 0.46Q41.66 0.46 42.10 0.54L42.10 0.54L42.10 0.54Q42.53 0.62 42.92 0.78L42.92 0.78L42.92 0.78Q43.32 0.95 43.63 1.22L43.63 1.22L43.63 1.22Q43.95 1.50 44.16 1.89L44.16 1.89L44.30 0.71L46.70 0.71L46.70 4.23L44.17 4.23L44.17 4.23Q44.17 3.84 44.03 3.54L44.03 3.54L44.03 3.54Q43.89 3.23 43.64 3.02L43.64 3.02L43.64 3.02Q43.40 2.81 43.07 2.71L43.07 2.71L43.07 2.71Q42.74 2.60 42.38 2.60L42.38 2.60L42.38 2.60Q42.22 2.60 42.06 2.65L42.06 2.65L42.06 2.65Q41.89 2.70 41.74 2.79L41.74 2.79L41.74 2.79Q41.59 2.88 41.50 3.02L41.50 3.02L41.50 3.02Q41.41 3.16 41.41 3.35L41.41 3.35L41.41 3.35Q41.41 3.71 41.83 3.95L41.83 3.95L41.83 3.95Q42.24 4.19 42.85 4.40L42.85 4.40L42.85 4.40Q43.47 4.61 44.18 4.85L44.18 4.85L44.18 4.85Q44.90 5.10 45.51 5.46L45.51 5.46L45.51 5.46Q46.13 5.82 46.54 6.37L46.54 6.37L46.54 6.37Q46.96 6.92 46.96 7.74L46.96 7.74L46.96 7.74Q46.96 8.57 46.61 9.13L46.61 9.13L46.61 9.13Q46.27 9.69 45.73 10.04L45.73 10.04L45.73 10.04Q45.19 10.40 44.53 10.56L44.53 10.56L44.53 10.56Q43.88 10.71 43.25 10.71L43.25 10.71L43.25 10.71Q42.71 10.71 42.27 10.60L42.27 10.60L42.27 10.60Q41.82 10.49 41.45 10.30L41.45 10.30L41.45 10.30Q41.09 10.12 40.80 9.89L40.80 9.89L40.80 9.89Q40.52 9.66 40.32 9.42L40.32 9.42L40.17 10.50ZM53.51 8.18L54.68 9.53L54.68 9.53Q53.90 10.21 53.03 10.48L53.03 10.48L53.03 10.48Q52.16 10.75 51.07 10.75L51.07 10.75L51.07 10.75Q50.41 10.75 49.76 10.54L49.76 10.54L49.76 10.54Q49.10 10.32 48.57 9.86L48.57 9.86L48.57 9.86Q48.05 9.41 47.71 8.69L47.71 8.69L47.71 8.69Q47.38 7.97 47.38 6.96L47.38 6.96L47.38 6.96Q47.38 6.10 47.67 5.42L47.67 5.42L47.67 5.42Q47.96 4.75 48.47 4.27L48.47 4.27L48.47 4.27Q48.97 3.79 49.66 3.55L49.66 3.55L49.66 3.55Q50.34 3.30 51.14 3.30L51.14 3.30L51.14 3.30Q51.77 3.30 52.31 3.46L52.31 3.46L52.31 3.46Q52.85 3.61 53.28 3.88L53.28 3.88L53.28 3.88Q53.72 4.14 54.03 4.52L54.03 4.52L54.03 4.52Q54.33 4.90 54.49 5.33L54.49 5.33L54.49 5.33Q54.54 5.52 54.60 5.80L54.60 5.80L54.60 5.80Q54.66 6.08 54.68 6.40L54.68 6.40L54.68 6.40Q54.70 6.72 54.66 7.06L54.66 7.06L54.66 7.06Q54.63 7.41 54.52 7.70L54.52 7.70L50.11 7.70L50.11 7.70Q50.13 7.84 50.20 8.04L50.20 8.04L50.20 8.04Q50.26 8.23 50.41 8.41L50.41 8.41L50.41 8.41Q50.57 8.60 50.83 8.72L50.83 8.72L50.83 8.72Q51.10 8.85 51.55 8.85L51.55 8.85L51.55 8.85Q51.73 8.85 51.95 8.83L51.95 8.83L51.95 8.83Q52.16 8.82 52.42 8.75L52.42 8.75L52.42 8.75Q52.67 8.68 52.95 8.55L52.95 8.55L52.95 8.55Q53.23 8.41 53.51 8.18L53.51 8.18ZM51.23 5.19L51.23 5.19L51.23 5.19Q50.90 5.19 50.70 5.32L50.70 5.32L50.70 5.32Q50.50 5.45 50.38 5.62L50.38 5.62L50.38 5.62Q50.26 5.80 50.21 5.99L50.21 5.99L50.21 5.99Q50.16 6.19 50.15 6.31L50.15 6.31L52.26 6.31L52.26 6.31Q52.26 6.12 52.22 5.92L52.22 5.92L52.22 5.92Q52.18 5.71 52.07 5.55L52.07 5.55L52.07 5.55Q51.97 5.39 51.77 5.29L51.77 5.29L51.77 5.29Q51.56 5.19 51.23 5.19ZM59.33 8.67L59.33 10.50L55.24 10.50L55.24 8.67L55.85 8.67L55.85 1.81L55.26 1.81L55.26 0L58.51 0L58.51 8.67L59.33 8.67ZM63.98 8.67L63.98 10.50L59.89 10.50L59.89 8.67L60.49 8.67L60.49 1.81L59.91 1.81L59.91 0L63.15 0L63.15 8.67L63.98 8.67Z"></path></g><defs data-v-fde0c5aa=""><linearGradient data-v-fde0c5aa="" gradientTransform="rotate(25)" id="f2e81a79-2563-4c11-96e6-d0ed7bc56b2b" x1="0%" y1="0%" x2="100%" y2="0%"><stop data-v-fde0c5aa="" offset="0%" stop-color="#395ECA" stop-opacity="1"></stop><stop data-v-fde0c5aa="" offset="100%" stop-color="#848BD8" stop-opacity="1"></stop></linearGradient></defs><g data-v-fde0c5aa="" id="2fb14477-f09d-4707-a63d-92b3fa7aee0f" stroke="none" fill="url(#f2e81a79-2563-4c11-96e6-d0ed7bc56b2b)" transform="matrix(1.5774064236984857,0,0,1.5774064236984857,40,124.76149722082422)"><path d="M16 1c8.271 0 15 6.729 15 15s-6.729 15-15 15S1 24.271 1 16 7.729 1 16 1m0-1C7.163 0 0 7.163 0 16s7.163 16 16 16 16-7.163 16-16S24.837 0 16 0z"></path><path d="M16 7.045L24.955 16 16 24.955 7.045 16 16 7.045m0-1.414L5.631 16 16 26.369 26.369 16 16 5.631z"></path><path d="M16 12.538L19.462 16 16 19.462 12.538 16 16 12.538m0-1.414L11.124 16 16 20.876 20.876 16 16 11.124z"></path></g><!----></svg>